<svg width="267" height="222" viewBox="0 0 267 222" fill="none" xmlns="http://www.w3.org/2000/svg">
<mask id="mask0_27_660" style="mask-type:luminance" maskUnits="userSpaceOnUse" x="70" y="44" width="143" height="135">
<path d="M70.1976 44.3952H212.041V178.52H70.1976V44.3952Z" fill="white"/>
</mask>
<g mask="url(#mask0_27_660)">
<path d="M137.353 67.3756C137.353 54.693 149.738 44.3952 164.977 44.3952C180.231 44.3952 192.616 54.693 192.616 67.3756C192.616 80.0583 180.231 90.3441 164.977 90.3441C149.695 90.32 137.353 80.0583 137.353 67.3756ZM117.624 121.84C132.877 121.84 145.262 111.542 145.262 98.8714C145.262 86.1888 132.877 75.8909 117.624 75.8909C102.385 75.8909 89.9996 86.1888 89.9996 98.8714C89.9996 111.542 102.341 121.84 117.624 121.84ZM138.454 119.455C132.819 123.394 125.533 125.778 117.624 125.778C109.715 125.778 102.443 123.418 96.8078 119.455C81.6848 125.947 71.0088 139.159 70.2701 154.636C70.2701 154.636 70.2411 167.62 70.2411 167.765C70.2411 173.173 91.4336 177.581 117.566 177.581C143.698 177.581 164.876 173.197 164.876 167.741L164.948 154.612C164.21 139.123 153.577 125.923 138.454 119.455ZM185.808 87.9593C180.173 91.8978 172.887 94.2946 164.977 94.2946C158.908 94.2946 153.23 92.8974 148.362 90.4645C149.405 93.0902 149.97 95.9206 149.97 98.8714C149.97 105.64 146.928 111.831 141.96 116.564C155.402 122.755 164.948 133.583 168.353 146.097C192.877 145.736 212.244 141.46 212.244 136.269L212.302 123.141C211.563 107.664 200.931 94.4271 185.808 87.9593Z" fill="#894FB5"/>
</g>
</svg>
