<svg width="85" height="78" viewBox="0 0 85 78" fill="none" xmlns="http://www.w3.org/2000/svg">
<mask id="mask0_27_922" style="mask-type:luminance" maskUnits="userSpaceOnUse" x="0" y="0" width="85" height="78">
<path d="M0 0H84.3022V77.4011H0V0Z" fill="white"/>
</mask>
<g mask="url(#mask0_27_922)">
<path d="M42.4265 0C19.0886 0 0 17.5259 0 38.9533C0 60.3808 19.0886 77.9135 42.4265 77.9135C65.7644 77.9135 84.8604 60.3808 84.8604 38.9533C84.8604 17.5259 65.7644 0 42.4265 0ZM59.4015 42.848H46.6684V54.5388C46.6684 56.8756 44.9716 58.4334 42.4265 58.4334C39.8813 58.4334 38.1846 56.8756 38.1846 54.5388V42.848H25.4514C22.9063 42.848 21.2095 41.2901 21.2095 38.9533C21.2095 36.6166 22.9063 35.0587 25.4514 35.0587H38.1846V23.3747C38.1846 21.0379 39.8813 19.4801 42.4265 19.4801C44.9716 19.4801 46.6684 21.0379 46.6684 23.3747V35.0587H59.4015C61.9467 35.0587 63.6434 36.6166 63.6434 38.9533C63.6434 41.2901 61.9467 42.848 59.4015 42.848Z" fill="#6E3A96"/>
</g>
</svg>
