<svg xmlns="http://www.w3.org/2000/svg" xmlns:xlink="http://www.w3.org/1999/xlink" width="192" zoomAndPan="magnify" viewBox="0 0 144 143.999998" height="192" preserveAspectRatio="xMidYMid meet" version="1.0"><defs><clipPath id="02edc003d6"><path d="M 87.867188 38.046875 L 100.675781 38.046875 L 100.675781 50.589844 L 87.867188 50.589844 Z M 87.867188 38.046875 " clip-rule="nonzero"/></clipPath><clipPath id="0e2236f5fb"><path d="M 70.464844 82.722656 L 76.421875 82.722656 L 76.421875 100.867188 L 70.464844 100.867188 Z M 70.464844 82.722656 " clip-rule="nonzero"/></clipPath><clipPath id="1a709adc5c"><path d="M 52.675781 52 L 87 52 L 87 86 L 52.675781 86 Z M 52.675781 52 " clip-rule="nonzero"/></clipPath></defs><path fill="#6141ac" d="M 83.367188 49.460938 L 93.976562 40.328125 L 97.625 44.566406 L 87.019531 53.703125 L 83.367188 49.460938 " fill-opacity="1" fill-rule="nonzero"/><g clip-path="url(#02edc003d6)"><path fill="#6141ac" d="M 100.90625 38.046875 L 98.796875 44.304688 L 96.6875 50.558594 L 92.300781 45.460938 L 87.910156 40.367188 L 94.410156 39.207031 L 100.90625 38.046875 " fill-opacity="1" fill-rule="nonzero"/></g><g clip-path="url(#0e2236f5fb)"><path fill="#ab52c5" d="M 73.472656 100.867188 C 71.839844 100.871094 70.515625 99.550781 70.511719 97.917969 L 70.484375 82.769531 L 76.390625 82.757812 L 76.417969 97.910156 C 76.421875 99.539062 75.101562 100.863281 73.472656 100.867188 " fill-opacity="1" fill-rule="nonzero"/></g><path fill="#ab52c5" d="M 77.890625 95.757812 L 69.035156 95.773438 C 67.40625 95.777344 66.082031 94.457031 66.078125 92.828125 C 66.074219 91.195312 67.394531 89.871094 69.023438 89.867188 L 77.878906 89.851562 C 79.511719 89.847656 80.835938 91.167969 80.835938 92.796875 C 80.839844 94.429688 79.519531 95.753906 77.890625 95.757812 " fill-opacity="1" fill-rule="nonzero"/><g clip-path="url(#1a709adc5c)"><path fill="#ab52c5" d="M 82.019531 76.375 C 79.59375 78.101562 76.628906 79.113281 73.433594 79.109375 C 65.234375 79.097656 58.570312 72.359375 58.644531 64.15625 C 58.667969 61.546875 59.371094 59.089844 60.585938 56.964844 C 61.3125 55.703125 61 54.097656 59.871094 53.179688 C 58.441406 52.015625 56.308594 52.410156 55.394531 54.007812 C 54.992188 54.714844 54.628906 55.449219 54.308594 56.207031 C 53.222656 58.769531 52.675781 61.492188 52.675781 64.296875 C 52.675781 67.101562 53.222656 69.820312 54.308594 72.386719 C 55.355469 74.859375 56.855469 77.082031 58.761719 78.992188 C 60.667969 80.898438 62.890625 82.394531 65.367188 83.441406 C 67.929688 84.527344 70.652344 85.078125 73.457031 85.078125 C 76.261719 85.078125 78.984375 84.527344 81.546875 83.441406 C 82.9375 82.855469 84.25 82.125 85.46875 81.257812 C 86.980469 80.183594 87.171875 78.011719 85.863281 76.699219 C 84.832031 75.671875 83.207031 75.53125 82.019531 76.375 " fill-opacity="1" fill-rule="nonzero"/></g><path fill="#6141ac" d="M 92.808594 72.035156 C 93.921875 69.484375 94.5 66.769531 94.53125 63.964844 C 94.566406 61.160156 94.046875 58.433594 92.988281 55.855469 C 91.96875 53.371094 90.496094 51.128906 88.613281 49.203125 C 86.726562 47.273438 84.519531 45.75 82.058594 44.675781 C 79.503906 43.5625 76.789062 42.980469 73.984375 42.949219 C 71.183594 42.917969 68.453125 43.4375 65.878906 44.492188 C 64.480469 45.066406 63.160156 45.78125 61.929688 46.636719 C 60.40625 47.691406 60.191406 49.859375 61.488281 51.1875 C 62.503906 52.230469 64.128906 52.386719 65.324219 51.554688 C 67.765625 49.859375 70.742188 48.878906 73.9375 48.917969 C 82.078125 49.019531 88.648438 55.738281 88.566406 63.878906 C 88.539062 66.277344 87.945312 68.539062 86.910156 70.53125 C 86.253906 71.796875 86.574219 73.347656 87.683594 74.242188 C 89.152344 75.421875 91.335938 74.972656 92.203125 73.304688 C 92.417969 72.890625 92.621094 72.46875 92.808594 72.035156 " fill-opacity="1" fill-rule="nonzero"/><path fill="#b1a1ed" d="M 79.855469 59.921875 L 67.589844 59.921875 C 66.691406 59.921875 65.960938 60.652344 65.960938 61.550781 C 65.960938 62.445312 66.691406 63.175781 67.589844 63.175781 L 79.855469 63.175781 C 80.75 63.175781 81.484375 62.445312 81.484375 61.550781 C 81.484375 60.652344 80.75 59.921875 79.855469 59.921875 " fill-opacity="1" fill-rule="nonzero"/><path fill="#b1a1ed" d="M 79.855469 64.722656 L 67.589844 64.722656 C 66.691406 64.722656 65.960938 65.457031 65.960938 66.351562 C 65.960938 67.246094 66.691406 67.980469 67.589844 67.980469 L 79.855469 67.980469 C 80.75 67.980469 81.484375 67.246094 81.484375 66.351562 C 81.484375 65.457031 80.75 64.722656 79.855469 64.722656 " fill-opacity="1" fill-rule="nonzero"/></svg>