<svg width="57" height="57" viewBox="0 0 57 57" fill="none" xmlns="http://www.w3.org/2000/svg">
<path d="M7.125 14.25H11.875M11.875 14.25H49.875M11.875 14.25V47.5C11.875 48.7598 12.3754 49.968 13.2662 50.8588C14.157 51.7496 15.3652 52.25 16.625 52.25H40.375C41.6348 52.25 42.843 51.7496 43.7338 50.8588C44.6246 49.968 45.125 48.7598 45.125 47.5V14.25M19 14.25V9.5C19 8.24022 19.5004 7.03204 20.3912 6.14124C21.282 5.25044 22.4902 4.75 23.75 4.75H33.25C34.5098 4.75 35.718 5.25044 36.6088 6.14124C37.4996 7.03204 38 8.24022 38 9.5V14.25" stroke="#1E1E1E" stroke-linecap="round" stroke-linejoin="round"/>
</svg>
